<svg xmlns="http://www.w3.org/2000/svg" xmlns:xlink="http://www.w3.org/1999/xlink" xmlns:inkscape="http://www.inkscape.org/namespaces/inkscape" version="1.1" width="595" height="842" viewBox="0 0 595 842">
<defs>
<clipPath id="clip_1">
<path transform="matrix(.12,0,0,-.12,14,794)" d="M658 1678H4067V4535H658V1678"/>
</clipPath>
</defs>
<g clip-path="url(#clip_1)">
<g inkscape:groupmode="layer" inkscape:label="0">
<path transform="matrix(.12,0,0,-.12,14,794)" d="M2979 3813H2573L2979 3812ZM2573 3813 2979 3812H2564Z"/>
<path transform="matrix(.12,0,0,-.12,14,794)" stroke-linecap="butt" stroke-miterlimit="10" stroke-linejoin="miter" fill="none" stroke="#000000" d="M2979 3813H2573L2979 3812ZM2573 3813 2979 3812H2564Z"/>
<path transform="matrix(.12,0,0,-.12,14,794)" d="M1967 3813H1562L1977 3812ZM1562 3813 1977 3812H1562Z"/>
<path transform="matrix(.12,0,0,-.12,14,794)" stroke-linecap="butt" stroke-miterlimit="10" stroke-linejoin="miter" fill="none" stroke="#000000" d="M1967 3813H1562L1977 3812ZM1562 3813 1977 3812H1562Z"/>
<path transform="matrix(.12,0,0,-.12,14,794)" d="M2979 3812H2564L2979 3810ZM2564 3812 2979 3810H2555Z"/>
<path transform="matrix(.12,0,0,-.12,14,794)" stroke-linecap="butt" stroke-miterlimit="10" stroke-linejoin="miter" fill="none" stroke="#000000" d="M2979 3812H2564L2979 3810ZM2564 3812 2979 3810H2555Z"/>
<path transform="matrix(.12,0,0,-.12,14,794)" d="M1977 3812H1562L1986 3810ZM1562 3812 1986 3810H1562Z"/>
<path transform="matrix(.12,0,0,-.12,14,794)" stroke-linecap="butt" stroke-miterlimit="10" stroke-linejoin="miter" fill="none" stroke="#000000" d="M1977 3812H1562L1986 3810ZM1562 3812 1986 3810H1562Z"/>
<path transform="matrix(.12,0,0,-.12,14,794)" d="M2979 3810H2555L2979 3805ZM2555 3810 2979 3805H2547Z"/>
<path transform="matrix(.12,0,0,-.12,14,794)" stroke-linecap="butt" stroke-miterlimit="10" stroke-linejoin="miter" fill="none" stroke="#000000" d="M2979 3810H2555L2979 3805ZM2555 3810 2979 3805H2547Z"/>
<path transform="matrix(.12,0,0,-.12,14,794)" d="M1986 3810H1562L1994 3805ZM1562 3810 1994 3805H1562Z"/>
<path transform="matrix(.12,0,0,-.12,14,794)" stroke-linecap="butt" stroke-miterlimit="10" stroke-linejoin="miter" fill="none" stroke="#000000" d="M1986 3810H1562L1994 3805ZM1562 3810 1994 3805H1562Z"/>
<path transform="matrix(.12,0,0,-.12,14,794)" d="M2979 3805H2547L2979 3799ZM2547 3805 2979 3799H2540Z"/>
<path transform="matrix(.12,0,0,-.12,14,794)" stroke-linecap="butt" stroke-miterlimit="10" stroke-linejoin="miter" fill="none" stroke="#000000" d="M2979 3805H2547L2979 3799ZM2547 3805 2979 3799H2540Z"/>
<path transform="matrix(.12,0,0,-.12,14,794)" d="M1994 3805H1562L2001 3799ZM1562 3805 2001 3799H1562Z"/>
<path transform="matrix(.12,0,0,-.12,14,794)" stroke-linecap="butt" stroke-miterlimit="10" stroke-linejoin="miter" fill="none" stroke="#000000" d="M1994 3805H1562L2001 3799ZM1562 3805 2001 3799H1562Z"/>
<path transform="matrix(.12,0,0,-.12,14,794)" d="M2979 3799H2540L2979 3715ZM2540 3799 2979 3715H2455Z"/>
<path transform="matrix(.12,0,0,-.12,14,794)" stroke-linecap="butt" stroke-miterlimit="10" stroke-linejoin="miter" fill="none" stroke="#000000" d="M2979 3799H2540L2979 3715ZM2540 3799 2979 3715H2455Z"/>
<path transform="matrix(.12,0,0,-.12,14,794)" d="M2979 3715H2455L2978 3707ZM2455 3715 2978 3707H2448Z"/>
<path transform="matrix(.12,0,0,-.12,14,794)" stroke-linecap="butt" stroke-miterlimit="10" stroke-linejoin="miter" fill="none" stroke="#000000" d="M2979 3715H2455L2978 3707ZM2455 3715 2978 3707H2448Z"/>
<path transform="matrix(.12,0,0,-.12,14,794)" d="M2978 3707H2448L2977 3700ZM2448 3707 2977 3700H2441Z"/>
<path transform="matrix(.12,0,0,-.12,14,794)" stroke-linecap="butt" stroke-miterlimit="10" stroke-linejoin="miter" fill="none" stroke="#000000" d="M2978 3707H2448L2977 3700ZM2448 3707 2977 3700H2441Z"/>
<path transform="matrix(.12,0,0,-.12,14,794)" d="M2977 3700H2441L2974 3693ZM2441 3700 2974 3693H2434Z"/>
<path transform="matrix(.12,0,0,-.12,14,794)" stroke-linecap="butt" stroke-miterlimit="10" stroke-linejoin="miter" fill="none" stroke="#000000" d="M2977 3700H2441L2974 3693ZM2441 3700 2974 3693H2434Z"/>
<path transform="matrix(.12,0,0,-.12,14,794)" d="M2974 3693H2434L2970 3687ZM2434 3693 2970 3687H2428Z"/>
<path transform="matrix(.12,0,0,-.12,14,794)" stroke-linecap="butt" stroke-miterlimit="10" stroke-linejoin="miter" fill="none" stroke="#000000" d="M2974 3693H2434L2970 3687ZM2434 3693 2970 3687H2428Z"/>
<path transform="matrix(.12,0,0,-.12,14,794)" d="M2970 3687H2428L2965 3681ZM2428 3687 2965 3681H2422Z"/>
<path transform="matrix(.12,0,0,-.12,14,794)" stroke-linecap="butt" stroke-miterlimit="10" stroke-linejoin="miter" fill="none" stroke="#000000" d="M2970 3687H2428L2965 3681ZM2428 3687 2965 3681H2422Z"/>
<path transform="matrix(.12,0,0,-.12,14,794)" d="M2001 3799H1562L2204 3597ZM1562 3799 2204 3597H1562Z"/>
<path transform="matrix(.12,0,0,-.12,14,794)" stroke-linecap="butt" stroke-miterlimit="10" stroke-linejoin="miter" fill="none" stroke="#000000" d="M2001 3799H1562L2204 3597ZM1562 3799 2204 3597H1562Z"/>
<path transform="matrix(.12,0,0,-.12,14,794)" d="M2204 3597H1562L2211 3589ZM1562 3597 2211 3589H1562Z"/>
<path transform="matrix(.12,0,0,-.12,14,794)" stroke-linecap="butt" stroke-miterlimit="10" stroke-linejoin="miter" fill="none" stroke="#000000" d="M2204 3597H1562L2211 3589ZM1562 3597 2211 3589H1562Z"/>
<path transform="matrix(.12,0,0,-.12,14,794)" d="M2211 3589H1562L2218 3582ZM1562 3589 2218 3582H1564Z"/>
<path transform="matrix(.12,0,0,-.12,14,794)" stroke-linecap="butt" stroke-miterlimit="10" stroke-linejoin="miter" fill="none" stroke="#000000" d="M2211 3589H1562L2218 3582ZM1562 3589 2218 3582H1564Z"/>
<path transform="matrix(.12,0,0,-.12,14,794)" d="M2218 3582H1564L2225 3575ZM1564 3582 2225 3575H1567Z"/>
<path transform="matrix(.12,0,0,-.12,14,794)" stroke-linecap="butt" stroke-miterlimit="10" stroke-linejoin="miter" fill="none" stroke="#000000" d="M2218 3582H1564L2225 3575ZM1564 3582 2225 3575H1567Z"/>
<path transform="matrix(.12,0,0,-.12,14,794)" d="M2225 3575H1567L2231 3569ZM1567 3575 2231 3569H1571Z"/>
<path transform="matrix(.12,0,0,-.12,14,794)" stroke-linecap="butt" stroke-miterlimit="10" stroke-linejoin="miter" fill="none" stroke="#000000" d="M2225 3575H1567L2231 3569ZM1567 3575 2231 3569H1571Z"/>
<path transform="matrix(.12,0,0,-.12,14,794)" d="M2965 3681H2422L2847 3563ZM2422 3681 2847 3563H2304Z"/>
<path transform="matrix(.12,0,0,-.12,14,794)" stroke-linecap="butt" stroke-miterlimit="10" stroke-linejoin="miter" fill="none" stroke="#000000" d="M2965 3681H2422L2847 3563ZM2422 3681 2847 3563H2304Z"/>
<path transform="matrix(.12,0,0,-.12,14,794)" d="M2231 3569H1571L2237 3563ZM1571 3569 2237 3563H1576Z"/>
<path transform="matrix(.12,0,0,-.12,14,794)" stroke-linecap="butt" stroke-miterlimit="10" stroke-linejoin="miter" fill="none" stroke="#000000" d="M2231 3569H1571L2237 3563ZM1571 3569 2237 3563H1576Z"/>
<path transform="matrix(.12,0,0,-.12,14,794)" d="M2847 3563H2304L2841 3557ZM2304 3563 2841 3557H2297Z"/>
<path transform="matrix(.12,0,0,-.12,14,794)" stroke-linecap="butt" stroke-miterlimit="10" stroke-linejoin="miter" fill="none" stroke="#000000" d="M2847 3563H2304L2841 3557ZM2304 3563 2841 3557H2297Z"/>
<path transform="matrix(.12,0,0,-.12,14,794)" d="M2237 3563H1576L2244 3557ZM1576 3563 2244 3557H1582Z"/>
<path transform="matrix(.12,0,0,-.12,14,794)" stroke-linecap="butt" stroke-miterlimit="10" stroke-linejoin="miter" fill="none" stroke="#000000" d="M2237 3563H1576L2244 3557ZM1576 3563 2244 3557H1582Z"/>
<path transform="matrix(.12,0,0,-.12,14,794)" d="M2841 3557H2297L2837 3553ZM2297 3557 2837 3553H2289Z"/>
<path transform="matrix(.12,0,0,-.12,14,794)" stroke-linecap="butt" stroke-miterlimit="10" stroke-linejoin="miter" fill="none" stroke="#000000" d="M2841 3557H2297L2837 3553ZM2297 3557 2837 3553H2289Z"/>
<path transform="matrix(.12,0,0,-.12,14,794)" d="M2244 3557H1582L2252 3553ZM1582 3557 2252 3553H1586Z"/>
<path transform="matrix(.12,0,0,-.12,14,794)" stroke-linecap="butt" stroke-miterlimit="10" stroke-linejoin="miter" fill="none" stroke="#000000" d="M2244 3557H1582L2252 3553ZM1582 3557 2252 3553H1586Z"/>
<path transform="matrix(.12,0,0,-.12,14,794)" d="M2837 3553H2289L2834 3550ZM2289 3553 2834 3550H2280Z"/>
<path transform="matrix(.12,0,0,-.12,14,794)" stroke-linecap="butt" stroke-miterlimit="10" stroke-linejoin="miter" fill="none" stroke="#000000" d="M2837 3553H2289L2834 3550ZM2289 3553 2834 3550H2280Z"/>
<path transform="matrix(.12,0,0,-.12,14,794)" d="M2252 3553H1586L2261 3550ZM1586 3553 2261 3550H1589Z"/>
<path transform="matrix(.12,0,0,-.12,14,794)" stroke-linecap="butt" stroke-miterlimit="10" stroke-linejoin="miter" fill="none" stroke="#000000" d="M2252 3553H1586L2261 3550ZM1586 3553 2261 3550H1589Z"/>
<path transform="matrix(.12,0,0,-.12,14,794)" d="M2834 3550H2280L2833 3549ZM2280 3550 2833 3549H2270Z"/>
<path transform="matrix(.12,0,0,-.12,14,794)" stroke-linecap="butt" stroke-miterlimit="10" stroke-linejoin="miter" fill="none" stroke="#000000" d="M2834 3550H2280L2833 3549ZM2280 3550 2833 3549H2270Z"/>
<path transform="matrix(.12,0,0,-.12,14,794)" d="M2261 3550H1589L2270 3549ZM1589 3550 2270 3549H1590Z"/>
<path transform="matrix(.12,0,0,-.12,14,794)" stroke-linecap="butt" stroke-miterlimit="10" stroke-linejoin="miter" fill="none" stroke="#000000" d="M2261 3550H1589L2270 3549ZM1589 3550 2270 3549H1590Z"/>
<path transform="matrix(.12,0,0,-.12,14,794)" d="M2833 3549H1590L2422 3138ZM1590 3549 2422 3138H2001Z"/>
<path transform="matrix(.12,0,0,-.12,14,794)" stroke-linecap="butt" stroke-miterlimit="10" stroke-linejoin="miter" fill="none" stroke="#000000" d="M2833 3549H1590L2422 3138ZM1590 3549 2422 3138H2001Z"/>
<path transform="matrix(.12,0,0,-.12,14,794)" d="M2422 3138H2001L2417 3132ZM2001 3138 2417 3132H2006Z"/>
<path transform="matrix(.12,0,0,-.12,14,794)" stroke-linecap="butt" stroke-miterlimit="10" stroke-linejoin="miter" fill="none" stroke="#000000" d="M2422 3138H2001L2417 3132ZM2001 3138 2417 3132H2006Z"/>
<path transform="matrix(.12,0,0,-.12,14,794)" d="M2417 3132H2006L2413 3125ZM2006 3132 2413 3125H2010Z"/>
<path transform="matrix(.12,0,0,-.12,14,794)" stroke-linecap="butt" stroke-miterlimit="10" stroke-linejoin="miter" fill="none" stroke="#000000" d="M2417 3132H2006L2413 3125ZM2006 3132 2413 3125H2010Z"/>
<path transform="matrix(.12,0,0,-.12,14,794)" d="M2413 3125H2010L2410 3117ZM2010 3125 2410 3117H2013Z"/>
<path transform="matrix(.12,0,0,-.12,14,794)" stroke-linecap="butt" stroke-miterlimit="10" stroke-linejoin="miter" fill="none" stroke="#000000" d="M2413 3125H2010L2410 3117ZM2010 3125 2410 3117H2013Z"/>
<path transform="matrix(.12,0,0,-.12,14,794)" d="M2410 3117H2013L2408 3109ZM2013 3117 2408 3109H2015Z"/>
<path transform="matrix(.12,0,0,-.12,14,794)" stroke-linecap="butt" stroke-miterlimit="10" stroke-linejoin="miter" fill="none" stroke="#000000" d="M2410 3117H2013L2408 3109ZM2013 3117 2408 3109H2015Z"/>
<path transform="matrix(.12,0,0,-.12,14,794)" d="M2408 3109H2015L2408 3100ZM2015 3109 2408 3100H2015Z"/>
<path transform="matrix(.12,0,0,-.12,14,794)" stroke-linecap="butt" stroke-miterlimit="10" stroke-linejoin="miter" fill="none" stroke="#000000" d="M2408 3109H2015L2408 3100ZM2015 3109 2408 3100H2015Z"/>
<path transform="matrix(.12,0,0,-.12,14,794)" d="M2408 3100H2015L2410 3092ZM2015 3100 2410 3092H2013Z"/>
<path transform="matrix(.12,0,0,-.12,14,794)" stroke-linecap="butt" stroke-miterlimit="10" stroke-linejoin="miter" fill="none" stroke="#000000" d="M2408 3100H2015L2410 3092ZM2015 3100 2410 3092H2013Z"/>
<path transform="matrix(.12,0,0,-.12,14,794)" d="M2410 3092H2013L2413 3085ZM2013 3092 2413 3085H2010Z"/>
<path transform="matrix(.12,0,0,-.12,14,794)" stroke-linecap="butt" stroke-miterlimit="10" stroke-linejoin="miter" fill="none" stroke="#000000" d="M2410 3092H2013L2413 3085ZM2013 3092 2413 3085H2010Z"/>
<path transform="matrix(.12,0,0,-.12,14,794)" d="M2413 3085H2010L2417 3077ZM2010 3085 2417 3077H2006Z"/>
<path transform="matrix(.12,0,0,-.12,14,794)" stroke-linecap="butt" stroke-miterlimit="10" stroke-linejoin="miter" fill="none" stroke="#000000" d="M2413 3085H2010L2417 3077ZM2010 3085 2417 3077H2006Z"/>
<path transform="matrix(.12,0,0,-.12,14,794)" d="M2417 3077H2006L2422 3071ZM2006 3077 2422 3071H2001Z"/>
<path transform="matrix(.12,0,0,-.12,14,794)" stroke-linecap="butt" stroke-miterlimit="10" stroke-linejoin="miter" fill="none" stroke="#000000" d="M2417 3077H2006L2422 3071ZM2006 3077 2422 3071H2001Z"/>
<path transform="matrix(.12,0,0,-.12,14,794)" d="M2422 3071H2001L2847 2646ZM2001 3071 2847 2646H1576Z"/>
<path transform="matrix(.12,0,0,-.12,14,794)" stroke-linecap="butt" stroke-miterlimit="10" stroke-linejoin="miter" fill="none" stroke="#000000" d="M2422 3071H2001L2847 2646ZM2001 3071 2847 2646H1576Z"/>
<path transform="matrix(.12,0,0,-.12,14,794)" d="M2847 2646H1576L2854 2639ZM1576 2646 2854 2639H1570Z"/>
<path transform="matrix(.12,0,0,-.12,14,794)" stroke-linecap="butt" stroke-miterlimit="10" stroke-linejoin="miter" fill="none" stroke="#000000" d="M2847 2646H1576L2854 2639ZM1576 2646 2854 2639H1570Z"/>
<path transform="matrix(.12,0,0,-.12,14,794)" d="M2854 2639H1570L2862 2631ZM1570 2639 2862 2631H1565Z"/>
<path transform="matrix(.12,0,0,-.12,14,794)" stroke-linecap="butt" stroke-miterlimit="10" stroke-linejoin="miter" fill="none" stroke="#000000" d="M2854 2639H1570L2862 2631ZM1570 2639 2862 2631H1565Z"/>
<path transform="matrix(.12,0,0,-.12,14,794)" d="M2862 2631H1565L2871 2622ZM1565 2631 2871 2622H1563Z"/>
<path transform="matrix(.12,0,0,-.12,14,794)" stroke-linecap="butt" stroke-miterlimit="10" stroke-linejoin="miter" fill="none" stroke="#000000" d="M2862 2631H1565L2871 2622ZM1565 2631 2871 2622H1563Z"/>
<path transform="matrix(.12,0,0,-.12,14,794)" d="M2871 2622H1563L2881 2613ZM1563 2622 2881 2613H1562Z"/>
<path transform="matrix(.12,0,0,-.12,14,794)" stroke-linecap="butt" stroke-miterlimit="10" stroke-linejoin="miter" fill="none" stroke="#000000" d="M2871 2622H1563L2881 2613ZM1563 2622 2881 2613H1562Z"/>
<path transform="matrix(.12,0,0,-.12,14,794)" d="M2881 2613H1562L2965 2528ZM1562 2613 2965 2528H1562Z"/>
<path transform="matrix(.12,0,0,-.12,14,794)" stroke-linecap="butt" stroke-miterlimit="10" stroke-linejoin="miter" fill="none" stroke="#000000" d="M2881 2613H1562L2965 2528ZM1562 2613 2965 2528H1562Z"/>
<path transform="matrix(.12,0,0,-.12,14,794)" d="M2965 2528H1562L2971 2521ZM1562 2528 2971 2521H1562Z"/>
<path transform="matrix(.12,0,0,-.12,14,794)" stroke-linecap="butt" stroke-miterlimit="10" stroke-linejoin="miter" fill="none" stroke="#000000" d="M2965 2528H1562L2971 2521ZM1562 2528 2971 2521H1562Z"/>
<path transform="matrix(.12,0,0,-.12,14,794)" d="M2971 2521H1562L2973 2518ZM1562 2521 2973 2518H1562Z"/>
<path transform="matrix(.12,0,0,-.12,14,794)" stroke-linecap="butt" stroke-miterlimit="10" stroke-linejoin="miter" fill="none" stroke="#000000" d="M2971 2521H1562L2973 2518ZM1562 2521 2973 2518H1562Z"/>
<path transform="matrix(.12,0,0,-.12,14,794)" d="M2973 2518H2275L2973 2516ZM2275 2518 2973 2516H2283Z"/>
<path transform="matrix(.12,0,0,-.12,14,794)" stroke-linecap="butt" stroke-miterlimit="10" stroke-linejoin="miter" fill="none" stroke="#000000" d="M2973 2518H2275L2973 2516ZM2275 2518 2973 2516H2283Z"/>
<path transform="matrix(.12,0,0,-.12,14,794)" d="M2266 2518H1562L2258 2516ZM1562 2518 2258 2516H1562Z"/>
<path transform="matrix(.12,0,0,-.12,14,794)" stroke-linecap="butt" stroke-miterlimit="10" stroke-linejoin="miter" fill="none" stroke="#000000" d="M2266 2518H1562L2258 2516ZM1562 2518 2258 2516H1562Z"/>
<path transform="matrix(.12,0,0,-.12,14,794)" d="M2973 2516H2283L2975 2514ZM2283 2516 2975 2514H2290Z"/>
<path transform="matrix(.12,0,0,-.12,14,794)" stroke-linecap="butt" stroke-miterlimit="10" stroke-linejoin="miter" fill="none" stroke="#000000" d="M2973 2516H2283L2975 2514ZM2283 2516 2975 2514H2290Z"/>
<path transform="matrix(.12,0,0,-.12,14,794)" d="M2258 2516H1562L2251 2514ZM1562 2516 2251 2514H1562Z"/>
<path transform="matrix(.12,0,0,-.12,14,794)" stroke-linecap="butt" stroke-miterlimit="10" stroke-linejoin="miter" fill="none" stroke="#000000" d="M2258 2516H1562L2251 2514ZM1562 2516 2251 2514H1562Z"/>
<path transform="matrix(.12,0,0,-.12,14,794)" d="M2975 2514H2290L2975 2513ZM2290 2514 2975 2513H2292Z"/>
<path transform="matrix(.12,0,0,-.12,14,794)" stroke-linecap="butt" stroke-miterlimit="10" stroke-linejoin="miter" fill="none" stroke="#000000" d="M2975 2514H2290L2975 2513ZM2290 2514 2975 2513H2292Z"/>
<path transform="matrix(.12,0,0,-.12,14,794)" d="M2975 2513H2292L2976 2510ZM2292 2513 2976 2510H2298Z"/>
<path transform="matrix(.12,0,0,-.12,14,794)" stroke-linecap="butt" stroke-miterlimit="10" stroke-linejoin="miter" fill="none" stroke="#000000" d="M2975 2513H2292L2976 2510ZM2292 2513 2976 2510H2298Z"/>
<path transform="matrix(.12,0,0,-.12,14,794)" d="M2251 2514H1562L2243 2510ZM1562 2514 2243 2510H1562Z"/>
<path transform="matrix(.12,0,0,-.12,14,794)" stroke-linecap="butt" stroke-miterlimit="10" stroke-linejoin="miter" fill="none" stroke="#000000" d="M2251 2514H1562L2243 2510ZM1562 2514 2243 2510H1562Z"/>
<path transform="matrix(.12,0,0,-.12,14,794)" d="M2976 2510H2298L2978 2504ZM2298 2510 2978 2504H2304Z"/>
<path transform="matrix(.12,0,0,-.12,14,794)" stroke-linecap="butt" stroke-miterlimit="10" stroke-linejoin="miter" fill="none" stroke="#000000" d="M2976 2510H2298L2978 2504ZM2298 2510 2978 2504H2304Z"/>
<path transform="matrix(.12,0,0,-.12,14,794)" d="M2243 2510H1562L2237 2504ZM1562 2510 2237 2504H1562Z"/>
<path transform="matrix(.12,0,0,-.12,14,794)" stroke-linecap="butt" stroke-miterlimit="10" stroke-linejoin="miter" fill="none" stroke="#000000" d="M2243 2510H1562L2237 2504ZM1562 2510 2237 2504H1562Z"/>
<path transform="matrix(.12,0,0,-.12,14,794)" d="M2304 2504H2978ZM2978 2504V2504H2304Z"/>
<path transform="matrix(.12,0,0,-.12,14,794)" stroke-linecap="butt" stroke-miterlimit="10" stroke-linejoin="miter" fill="none" stroke="#000000" d="M2304 2504H2978ZM2978 2504V2504H2304Z"/>
<path transform="matrix(.12,0,0,-.12,14,794)" d="M2978 2504H2304L2979 2494ZM2304 2504 2979 2494H2314Z"/>
<path transform="matrix(.12,0,0,-.12,14,794)" stroke-linecap="butt" stroke-miterlimit="10" stroke-linejoin="miter" fill="none" stroke="#000000" d="M2978 2504H2304L2979 2494ZM2304 2504 2979 2494H2314Z"/>
<path transform="matrix(.12,0,0,-.12,14,794)" d="M2979 2494H2314L2979 2410ZM2314 2494 2979 2410H2398Z"/>
<path transform="matrix(.12,0,0,-.12,14,794)" stroke-linecap="butt" stroke-miterlimit="10" stroke-linejoin="miter" fill="none" stroke="#000000" d="M2979 2494H2314L2979 2410ZM2314 2494 2979 2410H2398Z"/>
<path transform="matrix(.12,0,0,-.12,14,794)" d="M2237 2504H1562L2143 2410ZM1562 2504 2143 2410H1562Z"/>
<path transform="matrix(.12,0,0,-.12,14,794)" stroke-linecap="butt" stroke-miterlimit="10" stroke-linejoin="miter" fill="none" stroke="#000000" d="M2237 2504H1562L2143 2410ZM1562 2504 2143 2410H1562Z"/>
<path transform="matrix(.12,0,0,-.12,14,794)" d="M2143 2410H1562L2137 2405ZM1562 2410 2137 2405H1562Z"/>
<path transform="matrix(.12,0,0,-.12,14,794)" stroke-linecap="butt" stroke-miterlimit="10" stroke-linejoin="miter" fill="none" stroke="#000000" d="M2143 2410H1562L2137 2405ZM1562 2410 2137 2405H1562Z"/>
<path transform="matrix(.12,0,0,-.12,14,794)" d="M2979 2410H2398L2979 2404ZM2398 2410 2979 2404H2406Z"/>
<path transform="matrix(.12,0,0,-.12,14,794)" stroke-linecap="butt" stroke-miterlimit="10" stroke-linejoin="miter" fill="none" stroke="#000000" d="M2979 2410H2398L2979 2404ZM2398 2410 2979 2404H2406Z"/>
<path transform="matrix(.12,0,0,-.12,14,794)" d="M2137 2405H1562L2131 2401ZM1562 2405 2131 2401H1562Z"/>
<path transform="matrix(.12,0,0,-.12,14,794)" stroke-linecap="butt" stroke-miterlimit="10" stroke-linejoin="miter" fill="none" stroke="#000000" d="M2137 2405H1562L2131 2401ZM1562 2405 2131 2401H1562Z"/>
<path transform="matrix(.12,0,0,-.12,14,794)" d="M2979 2404H2406L2979 2400ZM2406 2404 2979 2400H2414Z"/>
<path transform="matrix(.12,0,0,-.12,14,794)" stroke-linecap="butt" stroke-miterlimit="10" stroke-linejoin="miter" fill="none" stroke="#000000" d="M2979 2404H2406L2979 2400ZM2406 2404 2979 2400H2414Z"/>
<path transform="matrix(.12,0,0,-.12,14,794)" d="M2131 2401H1562L2124 2398ZM1562 2401 2124 2398H1562Z"/>
<path transform="matrix(.12,0,0,-.12,14,794)" stroke-linecap="butt" stroke-miterlimit="10" stroke-linejoin="miter" fill="none" stroke="#000000" d="M2131 2401H1562L2124 2398ZM1562 2401 2124 2398H1562Z"/>
<path transform="matrix(.12,0,0,-.12,14,794)" d="M2979 2400H2414L2979 2397ZM2414 2400 2979 2397H2423Z"/>
<path transform="matrix(.12,0,0,-.12,14,794)" stroke-linecap="butt" stroke-miterlimit="10" stroke-linejoin="miter" fill="none" stroke="#000000" d="M2979 2400H2414L2979 2397ZM2414 2400 2979 2397H2423Z"/>
<path transform="matrix(.12,0,0,-.12,14,794)" d="M2124 2398H1562L2117 2397ZM1562 2398 2117 2397H1562Z"/>
<path transform="matrix(.12,0,0,-.12,14,794)" stroke-linecap="butt" stroke-miterlimit="10" stroke-linejoin="miter" fill="none" stroke="#000000" d="M2124 2398H1562L2117 2397ZM1562 2398 2117 2397H1562Z"/>
<path transform="matrix(.12,0,0,-.12,14,794)" d="M2979 2397H2423L2979 2396ZM2423 2397 2979 2396H2432Z"/>
<path transform="matrix(.12,0,0,-.12,14,794)" stroke-linecap="butt" stroke-miterlimit="10" stroke-linejoin="miter" fill="none" stroke="#000000" d="M2979 2397H2423L2979 2396ZM2423 2397 2979 2396H2432Z"/>
<path transform="matrix(.12,0,0,-.12,14,794)" d="M2117 2397H1562L2109 2396ZM1562 2397 2109 2396H1562Z"/>
<path transform="matrix(.12,0,0,-.12,14,794)" stroke-linecap="butt" stroke-miterlimit="10" stroke-linejoin="miter" fill="none" stroke="#000000" d="M2117 2397H1562L2109 2396ZM1562 2397 2109 2396H1562Z"/>
<path transform="matrix(.12,0,0,-.12,14,794)" stroke-width="6" stroke-linecap="round" stroke-linejoin="round" fill="none" stroke="#000000" d="M2540 3799 2304 3563"/>
<path transform="matrix(.12,0,0,-.12,14,794)" stroke-width="6" stroke-linecap="round" stroke-linejoin="round" fill="none" stroke="#000000" d="M2236.9124 3563.9124C2255.4625 3545.3626 2285.5377 3545.3626 2304.0877 3563.9124"/>
<path transform="matrix(.12,0,0,-.12,14,794)" stroke-width="6" stroke-linecap="round" stroke-linejoin="round" fill="none" stroke="#000000" d="M2001 3799 2237 3563"/>
<path transform="matrix(.12,0,0,-.12,14,794)" stroke-width="6" stroke-linecap="round" stroke-linejoin="round" fill="none" stroke="#000000" d="M2979 3813H2573"/>
<path transform="matrix(.12,0,0,-.12,14,794)" stroke-width="6" stroke-linecap="round" stroke-linejoin="round" fill="none" stroke="#000000" d="M2573.5 3814C2560.902 3814 2548.8204 3808.9957 2539.9124 3800.0877"/>
<path transform="matrix(.12,0,0,-.12,14,794)" stroke-width="6" stroke-linecap="round" stroke-linejoin="round" fill="none" stroke="#000000" d="M1967 3813H1562"/>
<path transform="matrix(.12,0,0,-.12,14,794)" stroke-width="6" stroke-linecap="round" stroke-linejoin="round" fill="none" stroke="#000000" d="M2001.0875 3800.0877C1992.1796 3808.9957 1980.0978 3814 1967.5 3814"/>
<path transform="matrix(.12,0,0,-.12,14,794)" stroke-width="6" stroke-linecap="round" stroke-linejoin="round" fill="none" stroke="#000000" d="M2979 3813V3715"/>
<path transform="matrix(.12,0,0,-.12,14,794)" stroke-width="6" stroke-linecap="round" stroke-linejoin="round" fill="none" stroke="#000000" d="M2966.0877 3681.9124C2974.9957 3690.8204 2980 3702.902 2980 3715.5"/>
<path transform="matrix(.12,0,0,-.12,14,794)" stroke-width="6" stroke-linecap="round" stroke-linejoin="round" fill="none" stroke="#000000" d="M2979 2494V2396H2432"/>
<path transform="matrix(.12,0,0,-.12,14,794)" stroke-width="6" stroke-linecap="round" stroke-linejoin="round" fill="none" stroke="#000000" d="M2398.9124 2409.9124C2407.8204 2401.0045 2419.902 2396 2432.5 2396"/>
<path transform="matrix(.12,0,0,-.12,14,794)" stroke-width="6" stroke-linecap="round" stroke-linejoin="round" fill="none" stroke="#000000" d="M2109 2396H1562V2613"/>
<path transform="matrix(.12,0,0,-.12,14,794)" stroke-width="6" stroke-linecap="round" stroke-linejoin="round" fill="none" stroke="#000000" d="M1575.9125 2647.0877C1567.0044 2638.1798 1562 2626.098 1562 2613.5"/>
<path transform="matrix(.12,0,0,-.12,14,794)" stroke-width="6" stroke-linecap="round" stroke-linejoin="round" fill="none" stroke="#000000" d="M1562 3597V3813"/>
<path transform="matrix(.12,0,0,-.12,14,794)" stroke-width="6" stroke-linecap="round" stroke-linejoin="round" fill="none" stroke="#000000" d="M1576 3563 2001 3138"/>
<path transform="matrix(.12,0,0,-.12,14,794)" stroke-width="6" stroke-linecap="round" stroke-linejoin="round" fill="none" stroke="#000000" d="M1562 3597.5C1562 3584.902 1567.0044 3572.8204 1575.9125 3563.9124"/>
<path transform="matrix(.12,0,0,-.12,14,794)" stroke-width="6" stroke-linecap="round" stroke-linejoin="round" fill="none" stroke="#000000" d="M1576 2646 2001 3071"/>
<path transform="matrix(.12,0,0,-.12,14,794)" stroke-width="6" stroke-linecap="round" stroke-linejoin="round" fill="none" stroke="#000000" d="M2001.0875 3071.9124C2019.6375 3090.4625 2019.6375 3120.5377 2001.0875 3139.0877"/>
<path transform="matrix(.12,0,0,-.12,14,794)" stroke-width="6" stroke-linecap="round" stroke-linejoin="round" fill="none" stroke="#000000" d="M2965 2528 2422 3071"/>
<path transform="matrix(.12,0,0,-.12,14,794)" stroke-width="6" stroke-linecap="round" stroke-linejoin="round" fill="none" stroke="#000000" d="M2980 2494.5C2980 2507.098 2974.9957 2519.1798 2966.0877 2528.0877"/>
<path transform="matrix(.12,0,0,-.12,14,794)" stroke-width="6" stroke-linecap="round" stroke-linejoin="round" fill="none" stroke="#000000" d="M2421.9124 3139.0877C2403.3626 3120.5377 2403.3626 3090.4625 2421.9124 3071.9124"/>
<path transform="matrix(.12,0,0,-.12,14,794)" stroke-width="6" stroke-linecap="round" stroke-linejoin="round" fill="none" stroke="#000000" d="M2965 3681 2422 3138"/>
<path transform="matrix(.12,0,0,-.12,14,794)" stroke-width="6" stroke-linecap="round" stroke-linejoin="round" fill="none" stroke="#000000" d="M2398 2410 2304 2504"/>
<path transform="matrix(.12,0,0,-.12,14,794)" stroke-width="6" stroke-linecap="round" stroke-linejoin="round" fill="none" stroke="#000000" d="M2304.0877 2505.0877C2285.5377 2523.6375 2255.4625 2523.6375 2236.9124 2505.0877"/>
<path transform="matrix(.12,0,0,-.12,14,794)" stroke-width="6" stroke-linecap="round" stroke-linejoin="round" fill="none" stroke="#000000" d="M2143 2410 2237 2504"/>
<path transform="matrix(.12,0,0,-.12,14,794)" stroke-width="6" stroke-linecap="round" stroke-linejoin="round" fill="none" stroke="#000000" d="M2109.5 2396C2122.098 2396 2134.1798 2401.0045 2143.0877 2409.9124"/>
</g>
</g>
</svg>
