<svg xmlns="http://www.w3.org/2000/svg" xmlns:xlink="http://www.w3.org/1999/xlink" xmlns:inkscape="http://www.inkscape.org/namespaces/inkscape" version="1.1" width="595" height="842" viewBox="0 0 595 842">
<defs>
<clipPath id="clip_1">
<path transform="matrix(.12,0,0,-.12,0,842)" d="M1430 1543H3530V5473H1430V1543"/>
</clipPath>
</defs>
<g clip-path="url(#clip_1)">
<g inkscape:groupmode="layer" inkscape:label="0">
<path transform="matrix(.12,0,0,-.12,0,842)" d="M2665 5137H2382L2665 4192ZM2382 5137 2665 4192H2382Z"/>
<path transform="matrix(.12,0,0,-.12,0,842)" stroke-linecap="butt" stroke-miterlimit="10" stroke-linejoin="miter" fill="none" stroke="#000000" d="M2665 5137H2382L2665 4192ZM2382 5137 2665 4192H2382Z"/>
<path transform="matrix(.12,0,0,-.12,0,842)" d="M2760 4192H2287L2760 3011ZM2287 4192 2760 3011H2287Z"/>
<path transform="matrix(.12,0,0,-.12,0,842)" stroke-linecap="butt" stroke-miterlimit="10" stroke-linejoin="miter" fill="none" stroke="#000000" d="M2760 4192H2287L2760 3011ZM2287 4192 2760 3011H2287Z"/>
<path transform="matrix(.12,0,0,-.12,0,842)" d="M2760 3011H2287L2760 2657ZM2287 3011 2760 2657H2334Z"/>
<path transform="matrix(.12,0,0,-.12,0,842)" stroke-linecap="butt" stroke-miterlimit="10" stroke-linejoin="miter" fill="none" stroke="#000000" d="M2760 3011H2287L2760 2657ZM2287 3011 2760 2657H2334Z"/>
<path transform="matrix(.12,0,0,-.12,0,842)" d="M2760 2657H2334L2733 2606ZM2334 2657 2733 2606H2340Z"/>
<path transform="matrix(.12,0,0,-.12,0,842)" stroke-linecap="butt" stroke-miterlimit="10" stroke-linejoin="miter" fill="none" stroke="#000000" d="M2760 2657H2334L2733 2606ZM2334 2657 2733 2606H2340Z"/>
<path transform="matrix(.12,0,0,-.12,0,842)" d="M2733 2606H2340L2709 2553ZM2340 2606 2709 2553H2347Z"/>
<path transform="matrix(.12,0,0,-.12,0,842)" stroke-linecap="butt" stroke-miterlimit="10" stroke-linejoin="miter" fill="none" stroke="#000000" d="M2733 2606H2340L2709 2553ZM2340 2606 2709 2553H2347Z"/>
<path transform="matrix(.12,0,0,-.12,0,842)" d="M2709 2553H2347L2689 2499ZM2347 2553 2689 2499H2354Z"/>
<path transform="matrix(.12,0,0,-.12,0,842)" stroke-linecap="butt" stroke-miterlimit="10" stroke-linejoin="miter" fill="none" stroke="#000000" d="M2709 2553H2347L2689 2499ZM2347 2553 2689 2499H2354Z"/>
<path transform="matrix(.12,0,0,-.12,0,842)" d="M2689 2499H2354L2672 2443ZM2354 2499 2672 2443H2362Z"/>
<path transform="matrix(.12,0,0,-.12,0,842)" stroke-linecap="butt" stroke-miterlimit="10" stroke-linejoin="miter" fill="none" stroke="#000000" d="M2689 2499H2354L2672 2443ZM2354 2499 2672 2443H2362Z"/>
<path transform="matrix(.12,0,0,-.12,0,842)" d="M2672 2443H2362L2658 2387ZM2362 2443 2658 2387H2369Z"/>
<path transform="matrix(.12,0,0,-.12,0,842)" stroke-linecap="butt" stroke-miterlimit="10" stroke-linejoin="miter" fill="none" stroke="#000000" d="M2672 2443H2362L2658 2387ZM2362 2443 2658 2387H2369Z"/>
<path transform="matrix(.12,0,0,-.12,0,842)" d="M2658 2387H2369L2648 2330ZM2369 2387 2648 2330H2376Z"/>
<path transform="matrix(.12,0,0,-.12,0,842)" stroke-linecap="butt" stroke-miterlimit="10" stroke-linejoin="miter" fill="none" stroke="#000000" d="M2658 2387H2369L2648 2330ZM2369 2387 2648 2330H2376Z"/>
<path transform="matrix(.12,0,0,-.12,0,842)" d="M2648 2330H2376L2641 2272ZM2376 2330 2641 2272H2384Z"/>
<path transform="matrix(.12,0,0,-.12,0,842)" stroke-linecap="butt" stroke-miterlimit="10" stroke-linejoin="miter" fill="none" stroke="#000000" d="M2648 2330H2376L2641 2272ZM2376 2330 2641 2272H2384Z"/>
<path transform="matrix(.12,0,0,-.12,0,842)" d="M2641 2272H2384L2637 2215ZM2384 2272 2637 2215H2392Z"/>
<path transform="matrix(.12,0,0,-.12,0,842)" stroke-linecap="butt" stroke-miterlimit="10" stroke-linejoin="miter" fill="none" stroke="#000000" d="M2641 2272H2384L2637 2215ZM2384 2272 2637 2215H2392Z"/>
<path transform="matrix(.12,0,0,-.12,0,842)" d="M2637 2215H2392L2637 2157ZM2392 2215 2637 2157H2399Z"/>
<path transform="matrix(.12,0,0,-.12,0,842)" stroke-linecap="butt" stroke-miterlimit="10" stroke-linejoin="miter" fill="none" stroke="#000000" d="M2637 2215H2392L2637 2157ZM2392 2215 2637 2157H2399Z"/>
<path transform="matrix(.12,0,0,-.12,0,842)" d="M2637 2157H2399L2641 2099ZM2399 2157 2641 2099H2407Z"/>
<path transform="matrix(.12,0,0,-.12,0,842)" stroke-linecap="butt" stroke-miterlimit="10" stroke-linejoin="miter" fill="none" stroke="#000000" d="M2637 2157H2399L2641 2099ZM2399 2157 2641 2099H2407Z"/>
<path transform="matrix(.12,0,0,-.12,0,842)" d="M2641 2099H2407L2649 2090ZM2407 2099 2649 2090H2398Z"/>
<path transform="matrix(.12,0,0,-.12,0,842)" stroke-linecap="butt" stroke-miterlimit="10" stroke-linejoin="miter" fill="none" stroke="#000000" d="M2641 2099H2407L2649 2090ZM2407 2099 2649 2090H2398Z"/>
<path transform="matrix(.12,0,0,-.12,0,842)" d="M2649 2090H2398L2650 2089ZM2398 2090 2650 2089H2397ZM2650 2089H2397 2650ZM2397 2089H2650Z"/>
<path transform="matrix(.12,0,0,-.12,0,842)" stroke-linecap="butt" stroke-miterlimit="10" stroke-linejoin="miter" fill="none" stroke="#000000" d="M2649 2090H2398L2650 2089ZM2398 2090 2650 2089H2397ZM2650 2089H2397 2650ZM2397 2089H2650Z"/>
<path transform="matrix(.12,0,0,-.12,0,842)" d="M2650 2089H2397L2651 2087ZM2397 2089 2651 2087H2396ZM2651 2087H2396 2651ZM2396 2087H2651Z"/>
<path transform="matrix(.12,0,0,-.12,0,842)" stroke-linecap="butt" stroke-miterlimit="10" stroke-linejoin="miter" fill="none" stroke="#000000" d="M2650 2089H2397L2651 2087ZM2397 2089 2651 2087H2396ZM2651 2087H2396 2651ZM2396 2087H2651Z"/>
<path transform="matrix(.12,0,0,-.12,0,842)" d="M2651 2087H2396L2652 2085ZM2396 2087 2652 2085H2395Z"/>
<path transform="matrix(.12,0,0,-.12,0,842)" stroke-linecap="butt" stroke-miterlimit="10" stroke-linejoin="miter" fill="none" stroke="#000000" d="M2651 2087H2396L2652 2085ZM2396 2087 2652 2085H2395Z"/>
<path transform="matrix(.12,0,0,-.12,0,842)" d="M2652 2085H2395L2652 2084ZM2395 2085 2652 2084H2395Z"/>
<path transform="matrix(.12,0,0,-.12,0,842)" stroke-linecap="butt" stroke-miterlimit="10" stroke-linejoin="miter" fill="none" stroke="#000000" d="M2652 2085H2395L2652 2084ZM2395 2085 2652 2084H2395Z"/>
<path transform="matrix(.12,0,0,-.12,0,842)" d="M2652 2084H2395L2652 2083ZM2395 2084 2652 2083H2395Z"/>
<path transform="matrix(.12,0,0,-.12,0,842)" stroke-linecap="butt" stroke-miterlimit="10" stroke-linejoin="miter" fill="none" stroke="#000000" d="M2652 2084H2395L2652 2083ZM2395 2084 2652 2083H2395Z"/>
<path transform="matrix(.12,0,0,-.12,0,842)" d="M2652 2083H2395L2652 2082ZM2395 2083 2652 2082H2395Z"/>
<path transform="matrix(.12,0,0,-.12,0,842)" stroke-linecap="butt" stroke-miterlimit="10" stroke-linejoin="miter" fill="none" stroke="#000000" d="M2652 2083H2395L2652 2082ZM2395 2083 2652 2082H2395Z"/>
<path transform="matrix(.12,0,0,-.12,0,842)" d="M2652 2082H2395L2652 2081ZM2395 2082 2652 2081H2395Z"/>
<path transform="matrix(.12,0,0,-.12,0,842)" stroke-linecap="butt" stroke-miterlimit="10" stroke-linejoin="miter" fill="none" stroke="#000000" d="M2652 2082H2395L2652 2081ZM2395 2082 2652 2081H2395Z"/>
<path transform="matrix(.12,0,0,-.12,0,842)" d="M2652 2081H2395L2652 2080ZM2395 2081 2652 2080H2395Z"/>
<path transform="matrix(.12,0,0,-.12,0,842)" stroke-linecap="butt" stroke-miterlimit="10" stroke-linejoin="miter" fill="none" stroke="#000000" d="M2652 2081H2395L2652 2080ZM2395 2081 2652 2080H2395Z"/>
<path transform="matrix(.12,0,0,-.12,0,842)" d="M2652 2080H2395L2652 2079ZM2395 2080 2652 2079H2395Z"/>
<path transform="matrix(.12,0,0,-.12,0,842)" stroke-linecap="butt" stroke-miterlimit="10" stroke-linejoin="miter" fill="none" stroke="#000000" d="M2652 2080H2395L2652 2079ZM2395 2080 2652 2079H2395Z"/>
<path transform="matrix(.12,0,0,-.12,0,842)" d="M2652 2079H2395L2651 2078ZM2395 2079 2651 2078H2396Z"/>
<path transform="matrix(.12,0,0,-.12,0,842)" stroke-linecap="butt" stroke-miterlimit="10" stroke-linejoin="miter" fill="none" stroke="#000000" d="M2652 2079H2395L2651 2078ZM2395 2079 2651 2078H2396Z"/>
<path transform="matrix(.12,0,0,-.12,0,842)" d="M2651 2078H2396L2651 2077ZM2396 2078 2651 2077H2396Z"/>
<path transform="matrix(.12,0,0,-.12,0,842)" stroke-linecap="butt" stroke-miterlimit="10" stroke-linejoin="miter" fill="none" stroke="#000000" d="M2651 2078H2396L2651 2077ZM2396 2078 2651 2077H2396Z"/>
<path transform="matrix(.12,0,0,-.12,0,842)" d="M2651 2077H2396L2650 2076ZM2396 2077 2650 2076H2397Z"/>
<path transform="matrix(.12,0,0,-.12,0,842)" stroke-linecap="butt" stroke-miterlimit="10" stroke-linejoin="miter" fill="none" stroke="#000000" d="M2651 2077H2396L2650 2076ZM2396 2077 2650 2076H2397Z"/>
<path transform="matrix(.12,0,0,-.12,0,842)" d="M2650 2076H2397L2650 2075ZM2397 2076 2650 2075H2397Z"/>
<path transform="matrix(.12,0,0,-.12,0,842)" stroke-linecap="butt" stroke-miterlimit="10" stroke-linejoin="miter" fill="none" stroke="#000000" d="M2650 2076H2397L2650 2075ZM2397 2076 2650 2075H2397Z"/>
<path transform="matrix(.12,0,0,-.12,0,842)" d="M2397 2075 2398 2074H2649ZM2398 2074H2649L2524 1948Z"/>
<path transform="matrix(.12,0,0,-.12,0,842)" stroke-linecap="butt" stroke-miterlimit="10" stroke-linejoin="miter" fill="none" stroke="#000000" d="M2397 2075 2398 2074H2649ZM2398 2074H2649L2524 1948Z"/>
<path transform="matrix(.12,0,0,-.12,0,842)" d="M2397 2075H2650L2649 2074Z"/>
<path transform="matrix(.12,0,0,-.12,0,842)" stroke-linecap="butt" stroke-miterlimit="10" stroke-linejoin="miter" fill="none" stroke="#000000" d="M2397 2075H2650L2649 2074Z"/>
<path transform="matrix(.12,0,0,-.12,0,842)" stroke-width="6" stroke-linecap="round" stroke-linejoin="round" fill="none" stroke="#000000" d="M2524 1948 2649 2074"/>
<path transform="matrix(.12,0,0,-.12,0,842)" stroke-width="6" stroke-linecap="round" stroke-linejoin="round" fill="none" stroke="#000000" d="M2649.6319 2074.3682C2654.1229 2078.8594 2654.1229 2086.1407 2649.6319 2090.6319"/>
<path transform="matrix(.12,0,0,-.12,0,842)" stroke-width="6" stroke-linecap="round" stroke-linejoin="round" fill="none" stroke="#000000" d="M2524 1948 2398 2074"/>
<path transform="matrix(.12,0,0,-.12,0,842)" stroke-width="6" stroke-linecap="round" stroke-linejoin="round" fill="none" stroke="#000000" d="M2399.3682 2090.6319C2394.8773 2086.1407 2394.8773 2078.8594 2399.3682 2074.3682"/>
<path transform="matrix(.12,0,0,-.12,0,842)" stroke-width="6" stroke-linecap="round" stroke-linejoin="round" fill="none" stroke="#000000" d="M2287 3011V4192H2382V5137H2665V4192H2760V2657L2733 2606 2709 2553 2689 2499 2672 2443 2658 2387 2648 2330 2641 2272 2637 2215V2157L2641 2099"/>
<path transform="matrix(.12,0,0,-.12,0,842)" stroke-width="6" stroke-linecap="round" stroke-linejoin="round" fill="none" stroke="#000000" d="M2398 2090 2407 2099 2287 3011"/>
<path transform="matrix(.12,0,0,-.12,0,842)" stroke-width="6" stroke-linecap="round" stroke-linejoin="round" fill="none" stroke="#000000" d="M2649 2090 2641 2099"/>
</g>
</g>
</svg>
