<svg xmlns="http://www.w3.org/2000/svg" xmlns:xlink="http://www.w3.org/1999/xlink" xmlns:inkscape="http://www.inkscape.org/namespaces/inkscape" version="1.1" width="595" height="842" viewBox="0 0 595 842">
<defs>
<clipPath id="clip_1">
<path transform="matrix(.12,0,0,-.12,14,794)" d="M769 937H3956V5274H769V937"/>
</clipPath>
</defs>
<g clip-path="url(#clip_1)">
<g inkscape:groupmode="layer" inkscape:label="0">
<path transform="matrix(.12,0,0,-.12,14,794)" d="M2809 4753H2526L2809 3809ZM2526 4753 2809 3809H2526Z"/>
<path transform="matrix(.12,0,0,-.12,14,794)" stroke-linecap="butt" stroke-miterlimit="10" stroke-linejoin="miter" fill="none" stroke="#000000" d="M2809 4753H2526L2809 3809ZM2526 4753 2809 3809H2526Z"/>
<path transform="matrix(.12,0,0,-.12,14,794)" d="M2904 3809H2008L2904 3807ZM2008 3809 2904 3807H1989Z"/>
<path transform="matrix(.12,0,0,-.12,14,794)" stroke-linecap="butt" stroke-miterlimit="10" stroke-linejoin="miter" fill="none" stroke="#000000" d="M2904 3809H2008L2904 3807ZM2008 3809 2904 3807H1989Z"/>
<path transform="matrix(.12,0,0,-.12,14,794)" d="M2904 3807H1989L2904 3803ZM1989 3807 2904 3803H1971Z"/>
<path transform="matrix(.12,0,0,-.12,14,794)" stroke-linecap="butt" stroke-miterlimit="10" stroke-linejoin="miter" fill="none" stroke="#000000" d="M2904 3807H1989L2904 3803ZM1989 3807 2904 3803H1971Z"/>
<path transform="matrix(.12,0,0,-.12,14,794)" d="M2904 3803H1971L2904 3796ZM1971 3803 2904 3796H1954Z"/>
<path transform="matrix(.12,0,0,-.12,14,794)" stroke-linecap="butt" stroke-miterlimit="10" stroke-linejoin="miter" fill="none" stroke="#000000" d="M2904 3803H1971L2904 3796ZM1971 3803 2904 3796H1954Z"/>
<path transform="matrix(.12,0,0,-.12,14,794)" d="M2904 3796H1954L2904 3786ZM1954 3796 2904 3786H1938Z"/>
<path transform="matrix(.12,0,0,-.12,14,794)" stroke-linecap="butt" stroke-miterlimit="10" stroke-linejoin="miter" fill="none" stroke="#000000" d="M2904 3796H1954L2904 3786ZM1954 3796 2904 3786H1938Z"/>
<path transform="matrix(.12,0,0,-.12,14,794)" d="M2904 3786H1938L2904 3774ZM1938 3786 2904 3774H1924Z"/>
<path transform="matrix(.12,0,0,-.12,14,794)" stroke-linecap="butt" stroke-miterlimit="10" stroke-linejoin="miter" fill="none" stroke="#000000" d="M2904 3786H1938L2904 3774ZM1938 3786 2904 3774H1924Z"/>
<path transform="matrix(.12,0,0,-.12,14,794)" d="M2904 3774H1924L2904 3576ZM1924 3774 2904 3576H1726Z"/>
<path transform="matrix(.12,0,0,-.12,14,794)" stroke-linecap="butt" stroke-miterlimit="10" stroke-linejoin="miter" fill="none" stroke="#000000" d="M2904 3774H1924L2904 3576ZM1924 3774 2904 3576H1726Z"/>
<path transform="matrix(.12,0,0,-.12,14,794)" d="M2904 3576H1726L2902 3556ZM1726 3576 2902 3556H1706Z"/>
<path transform="matrix(.12,0,0,-.12,14,794)" stroke-linecap="butt" stroke-miterlimit="10" stroke-linejoin="miter" fill="none" stroke="#000000" d="M2904 3576H1726L2902 3556ZM1726 3576 2902 3556H1706Z"/>
<path transform="matrix(.12,0,0,-.12,14,794)" d="M2902 3556H1706L2897 3536ZM1706 3556 2897 3536H1686Z"/>
<path transform="matrix(.12,0,0,-.12,14,794)" stroke-linecap="butt" stroke-miterlimit="10" stroke-linejoin="miter" fill="none" stroke="#000000" d="M2902 3556H1706L2897 3536ZM1706 3556 2897 3536H1686Z"/>
<path transform="matrix(.12,0,0,-.12,14,794)" d="M2897 3536H1686L2888 3517ZM1686 3536 2888 3517H1668Z"/>
<path transform="matrix(.12,0,0,-.12,14,794)" stroke-linecap="butt" stroke-miterlimit="10" stroke-linejoin="miter" fill="none" stroke="#000000" d="M2897 3536H1686L2888 3517ZM1686 3536 2888 3517H1668Z"/>
<path transform="matrix(.12,0,0,-.12,14,794)" d="M2888 3517H1668L2883 3509ZM1668 3517 2883 3509H1660Z"/>
<path transform="matrix(.12,0,0,-.12,14,794)" stroke-linecap="butt" stroke-miterlimit="10" stroke-linejoin="miter" fill="none" stroke="#000000" d="M2888 3517H1668L2883 3509ZM1668 3517 2883 3509H1660Z"/>
<path transform="matrix(.12,0,0,-.12,14,794)" d="M2883 3509H1660L2877 3501ZM1660 3509 2877 3501H1652Z"/>
<path transform="matrix(.12,0,0,-.12,14,794)" stroke-linecap="butt" stroke-miterlimit="10" stroke-linejoin="miter" fill="none" stroke="#000000" d="M2883 3509H1660L2877 3501ZM1660 3509 2877 3501H1652Z"/>
<path transform="matrix(.12,0,0,-.12,14,794)" d="M2877 3501H1652L2871 3495ZM1652 3501 2871 3495H1647Z"/>
<path transform="matrix(.12,0,0,-.12,14,794)" stroke-linecap="butt" stroke-miterlimit="10" stroke-linejoin="miter" fill="none" stroke="#000000" d="M2877 3501H1652L2871 3495ZM1652 3501 2871 3495H1647Z"/>
<path transform="matrix(.12,0,0,-.12,14,794)" d="M2871 3495H1647L2862 3486ZM1647 3495 2862 3486H1642Z"/>
<path transform="matrix(.12,0,0,-.12,14,794)" stroke-linecap="butt" stroke-miterlimit="10" stroke-linejoin="miter" fill="none" stroke="#000000" d="M2871 3495H1647L2862 3486ZM1647 3495 2862 3486H1642Z"/>
<path transform="matrix(.12,0,0,-.12,14,794)" d="M2862 3486H1642L2853 3479ZM1642 3486 2853 3479H1638Z"/>
<path transform="matrix(.12,0,0,-.12,14,794)" stroke-linecap="butt" stroke-miterlimit="10" stroke-linejoin="miter" fill="none" stroke="#000000" d="M2862 3486H1642L2853 3479ZM1642 3486 2853 3479H1638Z"/>
<path transform="matrix(.12,0,0,-.12,14,794)" d="M2853 3479H1638L2846 3474ZM1638 3479 2846 3474H1636Z"/>
<path transform="matrix(.12,0,0,-.12,14,794)" stroke-linecap="butt" stroke-miterlimit="10" stroke-linejoin="miter" fill="none" stroke="#000000" d="M2853 3479H1638L2846 3474ZM1638 3479 2846 3474H1636Z"/>
<path transform="matrix(.12,0,0,-.12,14,794)" d="M2846 3474H1636L2827 3465ZM1636 3474 2827 3465H1632Z"/>
<path transform="matrix(.12,0,0,-.12,14,794)" stroke-linecap="butt" stroke-miterlimit="10" stroke-linejoin="miter" fill="none" stroke="#000000" d="M2846 3474H1636L2827 3465ZM1636 3474 2827 3465H1632Z"/>
<path transform="matrix(.12,0,0,-.12,14,794)" d="M2827 3465H1632L2819 3462ZM1632 3465 2819 3462H1631Z"/>
<path transform="matrix(.12,0,0,-.12,14,794)" stroke-linecap="butt" stroke-miterlimit="10" stroke-linejoin="miter" fill="none" stroke="#000000" d="M2827 3465H1632L2819 3462ZM1632 3465 2819 3462H1631Z"/>
<path transform="matrix(.12,0,0,-.12,14,794)" d="M2819 3462H1631L2771 3444ZM1631 3462 2771 3444H1626Z"/>
<path transform="matrix(.12,0,0,-.12,14,794)" stroke-linecap="butt" stroke-miterlimit="10" stroke-linejoin="miter" fill="none" stroke="#000000" d="M2819 3462H1631L2771 3444ZM1631 3462 2771 3444H1626Z"/>
<path transform="matrix(.12,0,0,-.12,14,794)" d="M2771 3444H1626L2722 3426ZM1626 3444 2722 3426H1625Z"/>
<path transform="matrix(.12,0,0,-.12,14,794)" stroke-linecap="butt" stroke-miterlimit="10" stroke-linejoin="miter" fill="none" stroke="#000000" d="M2771 3444H1626L2722 3426ZM1626 3444 2722 3426H1625Z"/>
<path transform="matrix(.12,0,0,-.12,14,794)" d="M2722 3426H1625L2495 3340ZM1625 3426 2495 3340H1625Z"/>
<path transform="matrix(.12,0,0,-.12,14,794)" stroke-linecap="butt" stroke-miterlimit="10" stroke-linejoin="miter" fill="none" stroke="#000000" d="M2722 3426H1625L2495 3340ZM1625 3426 2495 3340H1625Z"/>
<path transform="matrix(.12,0,0,-.12,14,794)" d="M2495 3340H1625L2455 3324ZM1625 3340 2455 3324H1625Z"/>
<path transform="matrix(.12,0,0,-.12,14,794)" stroke-linecap="butt" stroke-miterlimit="10" stroke-linejoin="miter" fill="none" stroke="#000000" d="M2495 3340H1625L2455 3324ZM1625 3340 2455 3324H1625Z"/>
<path transform="matrix(.12,0,0,-.12,14,794)" d="M2455 3324H1625L2418 3303ZM1625 3324 2418 3303H1625Z"/>
<path transform="matrix(.12,0,0,-.12,14,794)" stroke-linecap="butt" stroke-miterlimit="10" stroke-linejoin="miter" fill="none" stroke="#000000" d="M2455 3324H1625L2418 3303ZM1625 3324 2418 3303H1625Z"/>
<path transform="matrix(.12,0,0,-.12,14,794)" d="M2418 3303H1625L2382 3279ZM1625 3303 2382 3279H1625Z"/>
<path transform="matrix(.12,0,0,-.12,14,794)" stroke-linecap="butt" stroke-miterlimit="10" stroke-linejoin="miter" fill="none" stroke="#000000" d="M2418 3303H1625L2382 3279ZM1625 3303 2382 3279H1625Z"/>
<path transform="matrix(.12,0,0,-.12,14,794)" d="M2382 3279H1625L2349 3253ZM1625 3279 2349 3253H1625Z"/>
<path transform="matrix(.12,0,0,-.12,14,794)" stroke-linecap="butt" stroke-miterlimit="10" stroke-linejoin="miter" fill="none" stroke="#000000" d="M2382 3279H1625L2349 3253ZM1625 3279 2349 3253H1625Z"/>
<path transform="matrix(.12,0,0,-.12,14,794)" d="M2349 3253H1625L2318 3223ZM1625 3253 2318 3223H1625Z"/>
<path transform="matrix(.12,0,0,-.12,14,794)" stroke-linecap="butt" stroke-miterlimit="10" stroke-linejoin="miter" fill="none" stroke="#000000" d="M2349 3253H1625L2318 3223ZM1625 3253 2318 3223H1625Z"/>
<path transform="matrix(.12,0,0,-.12,14,794)" d="M2318 3223H1625L2290 3190ZM1625 3223 2290 3190H1625Z"/>
<path transform="matrix(.12,0,0,-.12,14,794)" stroke-linecap="butt" stroke-miterlimit="10" stroke-linejoin="miter" fill="none" stroke="#000000" d="M2318 3223H1625L2290 3190ZM1625 3223 2290 3190H1625Z"/>
<path transform="matrix(.12,0,0,-.12,14,794)" d="M2290 3190H1625L2265 3156ZM1625 3190 2265 3156H1625Z"/>
<path transform="matrix(.12,0,0,-.12,14,794)" stroke-linecap="butt" stroke-miterlimit="10" stroke-linejoin="miter" fill="none" stroke="#000000" d="M2290 3190H1625L2265 3156ZM1625 3190 2265 3156H1625Z"/>
<path transform="matrix(.12,0,0,-.12,14,794)" d="M2265 3156H1625L2243 3119ZM1625 3156 2243 3119H1625Z"/>
<path transform="matrix(.12,0,0,-.12,14,794)" stroke-linecap="butt" stroke-miterlimit="10" stroke-linejoin="miter" fill="none" stroke="#000000" d="M2265 3156H1625L2243 3119ZM1625 3156 2243 3119H1625Z"/>
<path transform="matrix(.12,0,0,-.12,14,794)" d="M2243 3119H1625L2225 3080ZM1625 3119 2225 3080H1625Z"/>
<path transform="matrix(.12,0,0,-.12,14,794)" stroke-linecap="butt" stroke-miterlimit="10" stroke-linejoin="miter" fill="none" stroke="#000000" d="M2243 3119H1625L2225 3080ZM1625 3119 2225 3080H1625Z"/>
<path transform="matrix(.12,0,0,-.12,14,794)" d="M2225 3080H1625L2210 3040ZM1625 3080 2210 3040H1625Z"/>
<path transform="matrix(.12,0,0,-.12,14,794)" stroke-linecap="butt" stroke-miterlimit="10" stroke-linejoin="miter" fill="none" stroke="#000000" d="M2225 3080H1625L2210 3040ZM1625 3080 2210 3040H1625Z"/>
<path transform="matrix(.12,0,0,-.12,14,794)" d="M2210 3040H1625L2199 2998ZM1625 3040 2199 2998H1625Z"/>
<path transform="matrix(.12,0,0,-.12,14,794)" stroke-linecap="butt" stroke-miterlimit="10" stroke-linejoin="miter" fill="none" stroke="#000000" d="M2210 3040H1625L2199 2998ZM1625 3040 2199 2998H1625Z"/>
<path transform="matrix(.12,0,0,-.12,14,794)" d="M2199 2998H1625L2192 2956ZM1625 2998 2192 2956H1625Z"/>
<path transform="matrix(.12,0,0,-.12,14,794)" stroke-linecap="butt" stroke-miterlimit="10" stroke-linejoin="miter" fill="none" stroke="#000000" d="M2199 2998H1625L2192 2956ZM1625 2998 2192 2956H1625Z"/>
<path transform="matrix(.12,0,0,-.12,14,794)" d="M2192 2956H1625L2189 2913ZM1625 2956 2189 2913H1625Z"/>
<path transform="matrix(.12,0,0,-.12,14,794)" stroke-linecap="butt" stroke-miterlimit="10" stroke-linejoin="miter" fill="none" stroke="#000000" d="M2192 2956H1625L2189 2913ZM1625 2956 2189 2913H1625Z"/>
<path transform="matrix(.12,0,0,-.12,14,794)" d="M2189 2913H1625L2189 2870ZM1625 2913 2189 2870H1625Z"/>
<path transform="matrix(.12,0,0,-.12,14,794)" stroke-linecap="butt" stroke-miterlimit="10" stroke-linejoin="miter" fill="none" stroke="#000000" d="M2189 2913H1625L2189 2870ZM1625 2913 2189 2870H1625Z"/>
<path transform="matrix(.12,0,0,-.12,14,794)" d="M2189 2870H1625L2190 2861ZM1625 2870 2190 2861H1625Z"/>
<path transform="matrix(.12,0,0,-.12,14,794)" stroke-linecap="butt" stroke-miterlimit="10" stroke-linejoin="miter" fill="none" stroke="#000000" d="M2189 2870H1625L2190 2861ZM1625 2870 2190 2861H1625Z"/>
<path transform="matrix(.12,0,0,-.12,14,794)" d="M2190 2861H1625L2193 2841ZM1625 2861 2193 2841H1627Z"/>
<path transform="matrix(.12,0,0,-.12,14,794)" stroke-linecap="butt" stroke-miterlimit="10" stroke-linejoin="miter" fill="none" stroke="#000000" d="M2190 2861H1625L2193 2841ZM1625 2861 2193 2841H1627Z"/>
<path transform="matrix(.12,0,0,-.12,14,794)" d="M2193 2841H1627L2194 2828ZM1627 2841 2194 2828H1630Z"/>
<path transform="matrix(.12,0,0,-.12,14,794)" stroke-linecap="butt" stroke-miterlimit="10" stroke-linejoin="miter" fill="none" stroke="#000000" d="M2193 2841H1627L2194 2828ZM1627 2841 2194 2828H1630Z"/>
<path transform="matrix(.12,0,0,-.12,14,794)" d="M2194 2828H1630L2195 2821ZM1630 2828 2195 2821H1632Z"/>
<path transform="matrix(.12,0,0,-.12,14,794)" stroke-linecap="butt" stroke-miterlimit="10" stroke-linejoin="miter" fill="none" stroke="#000000" d="M2194 2828H1630L2195 2821ZM1630 2828 2195 2821H1632Z"/>
<path transform="matrix(.12,0,0,-.12,14,794)" d="M2195 2821H1632L2199 2802ZM1632 2821 2199 2802H1641Z"/>
<path transform="matrix(.12,0,0,-.12,14,794)" stroke-linecap="butt" stroke-miterlimit="10" stroke-linejoin="miter" fill="none" stroke="#000000" d="M2195 2821H1632L2199 2802ZM1632 2821 2199 2802H1641Z"/>
<path transform="matrix(.12,0,0,-.12,14,794)" d="M2199 2802H1641L2202 2786ZM1641 2802 2202 2786H1652ZM2202 2786H1652 1653Z"/>
<path transform="matrix(.12,0,0,-.12,14,794)" stroke-linecap="butt" stroke-miterlimit="10" stroke-linejoin="miter" fill="none" stroke="#000000" d="M2199 2802H1641L2202 2786ZM1641 2802 2202 2786H1652ZM2202 2786H1652 1653Z"/>
<path transform="matrix(.12,0,0,-.12,14,794)" d="M1652 2786H2202Z"/>
<path transform="matrix(.12,0,0,-.12,14,794)" stroke-linecap="butt" stroke-miterlimit="10" stroke-linejoin="miter" fill="none" stroke="#000000" d="M1652 2786H2202Z"/>
<path transform="matrix(.12,0,0,-.12,14,794)" d="M2202 2786H1653L2214 2745ZM1653 2786 2214 2745H1687Z"/>
<path transform="matrix(.12,0,0,-.12,14,794)" stroke-linecap="butt" stroke-miterlimit="10" stroke-linejoin="miter" fill="none" stroke="#000000" d="M2202 2786H1653L2214 2745ZM1653 2786 2214 2745H1687Z"/>
<path transform="matrix(.12,0,0,-.12,14,794)" d="M2214 2745H1687L2230 2705ZM1687 2745 2230 2705H1720Z"/>
<path transform="matrix(.12,0,0,-.12,14,794)" stroke-linecap="butt" stroke-miterlimit="10" stroke-linejoin="miter" fill="none" stroke="#000000" d="M2214 2745H1687L2230 2705ZM1687 2745 2230 2705H1720Z"/>
<path transform="matrix(.12,0,0,-.12,14,794)" d="M2230 2705H1720L2249 2667ZM1720 2705 2249 2667H1752Z"/>
<path transform="matrix(.12,0,0,-.12,14,794)" stroke-linecap="butt" stroke-miterlimit="10" stroke-linejoin="miter" fill="none" stroke="#000000" d="M2230 2705H1720L2249 2667ZM1720 2705 2249 2667H1752Z"/>
<path transform="matrix(.12,0,0,-.12,14,794)" d="M2249 2667H1752L2785 1715ZM1752 2667 2785 1715H2551Z"/>
<path transform="matrix(.12,0,0,-.12,14,794)" stroke-linecap="butt" stroke-miterlimit="10" stroke-linejoin="miter" fill="none" stroke="#000000" d="M2249 2667H1752L2785 1715ZM1752 2667 2785 1715H2551Z"/>
<path transform="matrix(.12,0,0,-.12,14,794)" d="M2785 1715H2551L2793 1707ZM2551 1715 2793 1707H2542Z"/>
<path transform="matrix(.12,0,0,-.12,14,794)" stroke-linecap="butt" stroke-miterlimit="10" stroke-linejoin="miter" fill="none" stroke="#000000" d="M2785 1715H2551L2793 1707ZM2551 1715 2793 1707H2542Z"/>
<path transform="matrix(.12,0,0,-.12,14,794)" d="M2793 1707H2542L2794 1705ZM2542 1707 2794 1705H2541ZM2794 1705H2541 2794ZM2541 1705H2794Z"/>
<path transform="matrix(.12,0,0,-.12,14,794)" stroke-linecap="butt" stroke-miterlimit="10" stroke-linejoin="miter" fill="none" stroke="#000000" d="M2793 1707H2542L2794 1705ZM2542 1707 2794 1705H2541ZM2794 1705H2541 2794ZM2541 1705H2794Z"/>
<path transform="matrix(.12,0,0,-.12,14,794)" d="M2794 1705H2541L2795 1704ZM2541 1705 2795 1704H2540Z"/>
<path transform="matrix(.12,0,0,-.12,14,794)" stroke-linecap="butt" stroke-miterlimit="10" stroke-linejoin="miter" fill="none" stroke="#000000" d="M2794 1705H2541L2795 1704ZM2541 1705 2795 1704H2540Z"/>
<path transform="matrix(.12,0,0,-.12,14,794)" d="M2795 1704H2540L2795 1703ZM2540 1704 2795 1703H2540Z"/>
<path transform="matrix(.12,0,0,-.12,14,794)" stroke-linecap="butt" stroke-miterlimit="10" stroke-linejoin="miter" fill="none" stroke="#000000" d="M2795 1704H2540L2795 1703ZM2540 1704 2795 1703H2540Z"/>
<path transform="matrix(.12,0,0,-.12,14,794)" d="M2795 1703H2540L2796 1702ZM2540 1703 2796 1702H2539Z"/>
<path transform="matrix(.12,0,0,-.12,14,794)" stroke-linecap="butt" stroke-miterlimit="10" stroke-linejoin="miter" fill="none" stroke="#000000" d="M2795 1703H2540L2796 1702ZM2540 1703 2796 1702H2539Z"/>
<path transform="matrix(.12,0,0,-.12,14,794)" d="M2796 1702H2539L2796 1701ZM2539 1702 2796 1701H2539Z"/>
<path transform="matrix(.12,0,0,-.12,14,794)" stroke-linecap="butt" stroke-miterlimit="10" stroke-linejoin="miter" fill="none" stroke="#000000" d="M2796 1702H2539L2796 1701ZM2539 1702 2796 1701H2539Z"/>
<path transform="matrix(.12,0,0,-.12,14,794)" d="M2796 1701H2539L2796 1700ZM2539 1701 2796 1700H2539Z"/>
<path transform="matrix(.12,0,0,-.12,14,794)" stroke-linecap="butt" stroke-miterlimit="10" stroke-linejoin="miter" fill="none" stroke="#000000" d="M2796 1701H2539L2796 1700ZM2539 1701 2796 1700H2539Z"/>
<path transform="matrix(.12,0,0,-.12,14,794)" d="M2796 1700H2539L2796 1699ZM2539 1700 2796 1699H2539Z"/>
<path transform="matrix(.12,0,0,-.12,14,794)" stroke-linecap="butt" stroke-miterlimit="10" stroke-linejoin="miter" fill="none" stroke="#000000" d="M2796 1700H2539L2796 1699ZM2539 1700 2796 1699H2539Z"/>
<path transform="matrix(.12,0,0,-.12,14,794)" d="M2796 1699H2539L2796 1698ZM2539 1699 2796 1698H2539Z"/>
<path transform="matrix(.12,0,0,-.12,14,794)" stroke-linecap="butt" stroke-miterlimit="10" stroke-linejoin="miter" fill="none" stroke="#000000" d="M2796 1699H2539L2796 1698ZM2539 1699 2796 1698H2539Z"/>
<path transform="matrix(.12,0,0,-.12,14,794)" d="M2796 1698H2539L2796 1696ZM2539 1698 2796 1696H2539ZM2796 1696H2539 2796ZM2539 1696H2796Z"/>
<path transform="matrix(.12,0,0,-.12,14,794)" stroke-linecap="butt" stroke-miterlimit="10" stroke-linejoin="miter" fill="none" stroke="#000000" d="M2796 1698H2539L2796 1696ZM2539 1698 2796 1696H2539ZM2796 1696H2539 2796ZM2539 1696H2796Z"/>
<path transform="matrix(.12,0,0,-.12,14,794)" d="M2796 1696H2539L2795 1694ZM2539 1696 2795 1694H2540ZM2795 1694H2540 2795ZM2540 1694H2795Z"/>
<path transform="matrix(.12,0,0,-.12,14,794)" stroke-linecap="butt" stroke-miterlimit="10" stroke-linejoin="miter" fill="none" stroke="#000000" d="M2796 1696H2539L2795 1694ZM2539 1696 2795 1694H2540ZM2795 1694H2540 2795ZM2540 1694H2795Z"/>
<path transform="matrix(.12,0,0,-.12,14,794)" d="M2795 1694H2540L2794 1692ZM2540 1694 2794 1692H2541ZM2794 1692H2541 2794ZM2541 1692H2794Z"/>
<path transform="matrix(.12,0,0,-.12,14,794)" stroke-linecap="butt" stroke-miterlimit="10" stroke-linejoin="miter" fill="none" stroke="#000000" d="M2795 1694H2540L2794 1692ZM2540 1694 2794 1692H2541ZM2794 1692H2541 2794ZM2541 1692H2794Z"/>
<path transform="matrix(.12,0,0,-.12,14,794)" d="M2541 1692 2542 1690H2793ZM2542 1690H2793L2668 1565Z"/>
<path transform="matrix(.12,0,0,-.12,14,794)" stroke-linecap="butt" stroke-miterlimit="10" stroke-linejoin="miter" fill="none" stroke="#000000" d="M2541 1692 2542 1690H2793ZM2542 1690H2793L2668 1565Z"/>
<path transform="matrix(.12,0,0,-.12,14,794)" d="M2541 1692H2794L2793 1690Z"/>
<path transform="matrix(.12,0,0,-.12,14,794)" stroke-linecap="butt" stroke-miterlimit="10" stroke-linejoin="miter" fill="none" stroke="#000000" d="M2541 1692H2794L2793 1690Z"/>
<path transform="matrix(.12,0,0,-.12,14,794)" stroke-width="6" stroke-linecap="round" stroke-linejoin="round" fill="none" stroke="#000000" d="M2668 1565 2793 1690"/>
<path transform="matrix(.12,0,0,-.12,14,794)" stroke-width="6" stroke-linecap="round" stroke-linejoin="round" fill="none" stroke="#000000" d="M2793.6319 1691.3683C2798.1229 1695.8593 2798.1229 1703.1408 2793.6319 1707.6317"/>
<path transform="matrix(.12,0,0,-.12,14,794)" stroke-width="6" stroke-linecap="round" stroke-linejoin="round" fill="none" stroke="#000000" d="M2668 1565 2542 1690"/>
<path transform="matrix(.12,0,0,-.12,14,794)" stroke-width="6" stroke-linecap="round" stroke-linejoin="round" fill="none" stroke="#000000" d="M2543.3682 1707.6317C2538.8773 1703.1408 2538.8773 1695.8593 2543.3682 1691.3683"/>
<path transform="matrix(.12,0,0,-.12,14,794)" stroke-width="6" stroke-linecap="round" stroke-linejoin="round" fill="none" stroke="#000000" d="M2431 3809H2526V4753H2809V3809H2904"/>
<path transform="matrix(.12,0,0,-.12,14,794)" stroke-width="6" stroke-linecap="round" stroke-linejoin="round" fill="none" stroke="#000000" d="M2542 1707 2551 1715"/>
<path transform="matrix(.12,0,0,-.12,14,794)" stroke-width="6" stroke-linecap="round" stroke-linejoin="round" fill="none" stroke="#000000" d="M2793 1707 2785 1715"/>
<path transform="matrix(.12,0,0,-.12,14,794)" stroke-width="6" stroke-linecap="round" stroke-linejoin="round" fill="none" stroke="#000000" d="M2551 1715 1653 2786"/>
<path transform="matrix(.12,0,0,-.12,14,794)" stroke-width="6" stroke-linecap="round" stroke-linejoin="round" fill="none" stroke="#000000" d="M2904 3809V3576"/>
<path transform="matrix(.12,0,0,-.12,14,794)" stroke-width="6" stroke-linecap="round" stroke-linejoin="round" fill="none" stroke="#000000" d="M2828.2027 3465.5806C2874.4044 3482.951 2905 3527.1409 2905 3576.5"/>
<path transform="matrix(.12,0,0,-.12,14,794)" stroke-width="6" stroke-linecap="round" stroke-linejoin="round" fill="none" stroke="#000000" d="M2431 3809H2008"/>
<path transform="matrix(.12,0,0,-.12,14,794)" stroke-width="6" stroke-linecap="round" stroke-linejoin="round" fill="none" stroke="#000000" d="M2008.5 3810C1977.0719 3810 1946.9309 3797.5152 1924.7079 3775.2923"/>
<path transform="matrix(.12,0,0,-.12,14,794)" stroke-width="6" stroke-linecap="round" stroke-linejoin="round" fill="none" stroke="#000000" d="M1924 3774 1660 3509"/>
<path transform="matrix(.12,0,0,-.12,14,794)" stroke-width="6" stroke-linecap="round" stroke-linejoin="round" fill="none" stroke="#000000" d="M1659.7079 3510.2923C1637.4848 3488.069 1625 3457.9283 1625 3426.5"/>
<path transform="matrix(.12,0,0,-.12,14,794)" stroke-width="6" stroke-linecap="round" stroke-linejoin="round" fill="none" stroke="#000000" d="M1625 3426V2861"/>
<path transform="matrix(.12,0,0,-.12,14,794)" stroke-width="6" stroke-linecap="round" stroke-linejoin="round" fill="none" stroke="#000000" d="M1625 2861.5C1625 2833.6395 1634.8165 2806.6697 1652.7254 2785.3277"/>
<path transform="matrix(.12,0,0,-.12,14,794)" stroke-width="6" stroke-linecap="round" stroke-linejoin="round" fill="none" stroke="#000000" d="M2495 3340 2827 3465"/>
<path transform="matrix(.12,0,0,-.12,14,794)" stroke-width="6" stroke-linecap="round" stroke-linejoin="round" fill="none" stroke="#000000" d="M2495.2174 3340.774C2366.162 3292.253 2264.738 3189.783 2217.5435 3060.237 2170.3489 2930.691 2182.092 2786.9932 2249.6937 2666.8287"/>
<path transform="matrix(.12,0,0,-.12,14,794)" stroke-width="6" stroke-linecap="round" stroke-linejoin="round" fill="none" stroke="#000000" d="M2249 2667 2785 1715"/>
</g>
</g>
</svg>
